<svg xmlns="http://www.w3.org/2000/svg" width="1200" height="630" viewBox="0 0 1200 630">
  <defs>
    <linearGradient id="bgGradient" x1="0%" y1="0%" x2="100%" y2="100%">
      <stop offset="0%" stop-color="#0f172a" />
      <stop offset="100%" stop-color="#1e293b" />
    </linearGradient>
    <linearGradient id="textGradient" x1="0%" y1="0%" x2="100%" y2="0%">
      <stop offset="0%" stop-color="#60a5fa" />
      <stop offset="50%" stop-color="#a855f7" />
      <stop offset="100%" stop-color="#2dd4bf" />
    </linearGradient>
  </defs>

  <!-- Background -->
  <rect width="1200" height="630" fill="url(#bgGradient)" />

  <!-- Game controller icon -->
  <g transform="translate(400, 180) scale(0.6)">
    <path d="M320 128H192c-17.7 0-32-14.3-32-32V32c0-17.7 14.3-32 32-32h128c17.7 0 32 14.3 32 32v64c0 17.7-14.3 32-32 32zM280 224h-48c-8.8 0-16-7.2-16-16v-32h80v32c0 8.8-7.2 16-16 16zM112 224H64c-8.8 0-16-7.2-16-16v-32h80v32c0 8.8-7.2 16-16 16zM192 192v32c0 8.8-7.2 16-16 16h-48c-8.8 0-16-7.2-16-16v-32h80zM32 128c-17.7 0-32-14.3-32-32V32C0 14.3 14.3 0 32 0h128c17.7 0 32 14.3 32 32v64c0 17.7-14.3 32-32 32H32z" fill="url(#textGradient)" />
    <circle cx="272" cy="64" r="16" fill="#ffffff" />
    <circle cx="320" cy="64" r="16" fill="#ffffff" />
    <circle cx="272" cy="16" r="16" fill="#ffffff" />
    <circle cx="320" cy="16" r="16" fill="#ffffff" />
    <rect x="48" y="48" width="16" height="32" rx="8" fill="#ffffff" />
    <rect x="32" y="64" width="48" height="16" rx="8" fill="#ffffff" />
  </g>

  <!-- Title -->
  <text x="600" y="400" font-family="sans-serif" font-size="72" font-weight="bold" text-anchor="middle" fill="url(#textGradient)">Vibe Games</text>

  <!-- Subtitle -->
  <text x="600" y="470" font-family="sans-serif" font-size="32" text-anchor="middle" fill="#ffffff">Interactive 3D Gaming Experience</text>
</svg>
